<svg xmlns="http://www.w3.org/2000/svg" width="600" height="800" viewBox="0 0 600 800">
  <defs>
    <linearGradient id="g" x1="0" y1="0" x2="1" y2="1">
      <stop offset="0" stop-color="#0b6a3a"/>
      <stop offset="1" stop-color="#10b981"/>
    </linearGradient>
  </defs>
  <rect x="0" y="0" width="600" height="800" rx="28" fill="#ecfdf5"/>
  <rect x="28" y="28" width="544" height="744" rx="22" fill="url(#g)" opacity="0.10"/>
  <g fill="#065f46" opacity="0.9">
    <path d="M175 260c0-22 18-40 40-40h170c22 0 40 18 40 40v290c0 22-18 40-40 40H215c-22 0-40-18-40-40V260zm40-10c-11 0-20 9-20 20v270c0 11 9 20 20 20h170c11 0 20-9 20-20V270c0-11-9-20-20-20H215z"/>
    <path d="M225 315h150v22H225zM225 365h150v22H225zM225 415h120v22H225z"/>
  </g>
  <text x="300" y="635" text-anchor="middle" font-family="system-ui, -apple-system, Segoe UI, Roboto, Arial" font-size="26" fill="#065f46" opacity="0.95">Tambahkan cover di folder /covers</text>
</svg>
